<svg width="17" height="17" viewBox="0 0 17 17" fill="none" xmlns="http://www.w3.org/2000/svg">
<path d="M2.70994 2.22827H13.5496C13.9089 2.22827 14.2536 2.36686 14.5077 2.61355C14.7618 2.86025 14.9045 3.19483 14.9045 3.54371V7.49002C14.9045 9.23439 14.1908 10.9073 12.9202 12.1408C11.6497 13.3742 9.92654 14.0672 8.12976 14.0672C7.24008 14.0672 6.35911 13.8971 5.53716 13.5665C4.71521 13.236 3.96836 12.7515 3.33927 12.1408C2.06875 10.9073 1.35498 9.23439 1.35498 7.49002V3.54371C1.35498 3.19483 1.49773 2.86025 1.75184 2.61355C2.00594 2.36686 2.35058 2.22827 2.70994 2.22827V2.22827Z" stroke="#121221" stroke-width="2" stroke-linecap="round" stroke-linejoin="round"/>
<path d="M5.4198 6.83228L8.12971 9.46315L10.8396 6.83228" stroke="#121221" stroke-width="2" stroke-linecap="round" stroke-linejoin="round"/>
</svg>
